{
	"asset":{
		"generator":"Khronos glTF Blender I/O v4.0.44",
		"version":"2.0"
	},
	"extensionsUsed":[
		"KHR_materials_transmission",
		"KHR_materials_ior"
	],
	"scene":0,
	"scenes":[
		{
			"name":"Scene",
			"nodes":[
				0,
				1
			]
		}
	],
	"nodes":[
		{
			"mesh":0,
			"name":"Ground",
			"translation":[
				0,
				-0.1003560870885849,
				0
			]
		},
		{
			"mesh":1,
			"name":"Water",
			"translation":[
				0,
				-1.3178349733352661,
				0
			]
		}
	],
	"materials":[
		{
			"name":"G",
			"normalTexture":{
				"index":0
			},
			"pbrMetallicRoughness":{
				"baseColorTexture":{
					"index":1
				},
				"metallicFactor":0,
				"metallicRoughnessTexture":{
					"index":2
				}
			}
		},
		{
			"extensions":{
				"KHR_materials_transmission":{
					"transmissionFactor":1
				},
				"KHR_materials_ior":{
					"ior":1.4500000476837158
				}
			},
			"name":"W",
			"normalTexture":{
				"index":3,
				"scale":0.06000003218650818
			},
			"pbrMetallicRoughness":{
				"baseColorFactor":[
					0.6071382164955139,
					0.8000000715255737,
					0.6746565699577332,
					1
				],
				"metallicFactor":0,
				"roughnessFactor":0.07727271318435669
			}
		}
	],
	"meshes":[
		{
			"name":"Circle.001",
			"primitives":[
				{
					"attributes":{
						"COLOR_0":0,
						"POSITION":1,
						"NORMAL":2,
						"TEXCOORD_0":3
					},
					"indices":4,
					"material":0
				}
			]
		},
		{
			"name":"Circle.002",
			"primitives":[
				{
					"attributes":{
						"POSITION":5,
						"NORMAL":6,
						"TEXCOORD_0":7
					},
					"indices":8,
					"material":1
				}
			]
		}
	],
	"textures":[
		{
			"sampler":0,
			"source":0
		},
		{
			"sampler":0,
			"source":1
		},
		{
			"sampler":0,
			"source":2
		},
		{
			"sampler":0,
			"source":3
		}
	],
	"images":[
		{
			"mimeType":"image/png",
			"name":"Wet_Soil_Normal_DirectX",
			"uri":"Wet_Soil_Normal_DirectX.png"
		},
		{
			"mimeType":"image/png",
			"name":"Wet_Soil_Base_Color",
			"uri":"Wet_Soil_Base_Color.png"
		},
		{
			"mimeType":"image/png",
			"name":"Wet_Soil_Roughness",
			"uri":"Wet_Soil_Roughness.png"
		},
		{
			"mimeType":"image/jpeg",
			"name":"Water 0236normal",
			"uri":"Water%200236normal.jpg"
		}
	],
	"accessors":[
		{
			"bufferView":0,
			"componentType":5123,
			"count":9025,
			"normalized":true,
			"type":"VEC4"
		},
		{
			"bufferView":1,
			"componentType":5126,
			"count":9025,
			"max":[
				34.80183792114258,
				3.359034299850464,
				34.811092376708984
			],
			"min":[
				-34.798160552978516,
				-2.9895458221435547,
				-35.3526496887207
			],
			"type":"VEC3"
		},
		{
			"bufferView":2,
			"componentType":5126,
			"count":9025,
			"type":"VEC3"
		},
		{
			"bufferView":3,
			"componentType":5126,
			"count":9025,
			"type":"VEC2"
		},
		{
			"bufferView":4,
			"componentType":5123,
			"count":53760,
			"type":"SCALAR"
		},
		{
			"bufferView":5,
			"componentType":5126,
			"count":33,
			"max":[
				151.3433074951172,
				-1.8127805923029428e-09,
				151.3433074951172
			],
			"min":[
				-151.34327697753906,
				-1.8127805923029428e-09,
				-151.34324645996094
			],
			"type":"VEC3"
		},
		{
			"bufferView":6,
			"componentType":5126,
			"count":33,
			"type":"VEC3"
		},
		{
			"bufferView":7,
			"componentType":5126,
			"count":33,
			"type":"VEC2"
		},
		{
			"bufferView":8,
			"componentType":5123,
			"count":96,
			"type":"SCALAR"
		}
	],
	"bufferViews":[
		{
			"buffer":0,
			"byteLength":72200,
			"byteOffset":0,
			"target":34962
		},
		{
			"buffer":0,
			"byteLength":108300,
			"byteOffset":72200,
			"target":34962
		},
		{
			"buffer":0,
			"byteLength":108300,
			"byteOffset":180500,
			"target":34962
		},
		{
			"buffer":0,
			"byteLength":72200,
			"byteOffset":288800,
			"target":34962
		},
		{
			"buffer":0,
			"byteLength":107520,
			"byteOffset":361000,
			"target":34963
		},
		{
			"buffer":0,
			"byteLength":396,
			"byteOffset":468520,
			"target":34962
		},
		{
			"buffer":0,
			"byteLength":396,
			"byteOffset":468916,
			"target":34962
		},
		{
			"buffer":0,
			"byteLength":264,
			"byteOffset":469312,
			"target":34962
		},
		{
			"buffer":0,
			"byteLength":192,
			"byteOffset":469576,
			"target":34963
		}
	],
	"samplers":[
		{
			"magFilter":9729,
			"minFilter":9987
		}
	],
	"buffers":[
		{
			"byteLength":469768,
			"uri":"tree_scene.bin"
		}
	]
}
